<svg width="40" height="40" viewBox="0 0 40 40" fill="none" xmlns="http://www.w3.org/2000/svg">
<path d="M6.77734 8.81543H24.9346L36.0098 17.1982C36.7498 17.7583 37.1846 18.6335 37.1846 19.5615V27.2227C37.1843 28.8586 35.8586 30.1843 34.2227 30.1846H6.77734C5.14139 30.1843 3.81566 28.8586 3.81543 27.2227V11.7773C3.81566 10.1414 5.14139 8.81566 6.77734 8.81543Z" stroke="#BBBBBB" stroke-width="1.63"/>
<path d="M8.54542 25V14.0909H10.8519V23.0984H15.5287V25H8.54542ZM18.0312 25V14.0909H22.3991C23.2016 14.0909 23.871 14.2099 24.4072 14.4478C24.9434 14.6857 25.3465 15.016 25.6164 15.4386C25.8863 15.8576 26.0212 16.3406 26.0212 16.8874C26.0212 17.3136 25.936 17.6882 25.7655 18.0114C25.5951 18.331 25.3607 18.5937 25.0624 18.7997C24.7677 19.0021 24.4303 19.146 24.0503 19.2312V19.3377C24.4658 19.3555 24.8547 19.4727 25.2169 19.6893C25.5827 19.9059 25.8792 20.2095 26.1064 20.6001C26.3337 20.9872 26.4474 21.4489 26.4474 21.9851C26.4474 22.5639 26.3035 23.0806 26.0159 23.5352C25.7318 23.9862 25.311 24.343 24.7535 24.6058C24.1959 24.8686 23.5088 25 22.692 25H18.0312ZM20.3376 23.1143H22.218C22.8607 23.1143 23.3295 22.9918 23.6242 22.7468C23.9189 22.4982 24.0663 22.168 24.0663 21.756C24.0663 21.4542 23.9935 21.1879 23.8479 20.957C23.7023 20.7262 23.4946 20.5451 23.2247 20.4137C22.9584 20.2823 22.6405 20.2166 22.2712 20.2166H20.3376V23.1143ZM20.3376 18.6559H22.0475C22.3635 18.6559 22.6441 18.6009 22.8891 18.4908C23.1377 18.3771 23.333 18.2173 23.4751 18.0114C23.6206 17.8054 23.6934 17.5586 23.6934 17.271C23.6934 16.8768 23.5532 16.5589 23.2726 16.3175C22.9956 16.076 22.6015 15.9553 22.0901 15.9553H20.3376V18.6559Z" fill="#BBBBBB"/>
</svg>
